<?xml version="1.0" encoding="UTF-8" standalone="no" ?>
<!DOCTYPE svg PUBLIC "-//W3C//DTD SVG 1.1//EN" "http://www.w3.org/Graphics/SVG/1.1/DTD/svg11.dtd">
<svg xmlns="http://www.w3.org/2000/svg" xmlns:xlink="http://www.w3.org/1999/xlink" version="1.1" width="60" height="60" viewBox="0 0 70 70" xml:space="preserve">
<desc>Created with Fabric.js 5.2.4</desc>
<defs>
</defs>
<g transform="matrix(1 0 0 1 35 35)" id="b4f8b1ca-c179-4c88-9251-bd888c571e63"  >
<rect style="stroke: none; stroke-width: 1; stroke-dasharray: none; stroke-linecap: butt; stroke-dashoffset: 0; stroke-linejoin: miter; stroke-miterlimit: 4; fill: rgb(0,0,0); fill-opacity: 0; fill-rule: nonzero; opacity: 1;" vector-effect="non-scaling-stroke"  x="-35" y="-35" rx="0" ry="0" width="70" height="70" />
</g>
<g transform="matrix(Infinity NaN NaN Infinity 0 0)" id="b0563c42-3f54-4673-985f-f87aabcd5c99"  >
</g>
<g transform="matrix(4.07 0 0 4.07 35 35)" id="037b7168-34d9-4b5b-884c-3897e24e739a"  >
<path style="stroke: rgb(0,0,0); stroke-width: 0; stroke-dasharray: none; stroke-linecap: butt; stroke-dashoffset: 0; stroke-linejoin: miter; stroke-miterlimit: 4; fill: rgb(225,225,225); fill-opacity: 0.67; fill-rule: nonzero; opacity: 1;" vector-effect="non-scaling-stroke"  transform=" translate(-12, -12.01)" d="M 9.35003 16.88 C 9.35003 16.95 9.28003 17 9.18003 17 C 9.08003 17 9.00003 17 9.00003 16.88 C 9.00003 16.76 9.08003 16.76 9.17003 16.76 C 9.26003 16.76 9.35003 16.81 9.35003 16.88 Z M 8.35003 16.73 C 8.35003 16.8 8.35003 16.88 8.49003 16.9 C 8.52584 16.9172 8.56701 16.9195 8.6045 16.9064 C 8.642 16.8933 8.67275 16.8658 8.69003 16.83 C 8.69003 16.76 8.69003 16.69 8.55003 16.66 C 8.41003 16.63 8.37003 16.66 8.35003 16.73 Z M 9.77003 16.68 C 9.68003 16.68 9.62003 16.76 9.63003 16.84 C 9.64003 16.92 9.72003 16.95 9.82003 16.93 C 9.92003 16.91 9.97003 16.84 9.96003 16.77 C 9.95003 16.7 9.87003 16.67 9.77003 16.68 Z M 11.9 4.00002 C 10.8454 3.99009 9.79962 4.19333 8.82547 4.59754 C 7.85132 5.00175 6.96887 5.5986 6.23107 6.35227 C 5.49328 7.10594 4.91535 8.0009 4.53197 8.98343 C 4.14859 9.96597 3.96765 11.0158 4.00003 12.07 C 3.97211 13.7969 4.48426 15.4894 5.46493 16.9111 C 6.4456 18.3328 7.84582 19.4127 9.47003 20 C 9.88003 20.07 10.03 19.81 10.03 19.6 C 10.03 19.39 10.03 18.26 10.03 17.6 C 10.03 17.6 7.77003 18.1 7.29003 16.6 C 7.29003 16.6 6.93003 15.6 6.40003 15.39 C 6.40003 15.39 5.66003 14.87 6.45003 14.88 C 6.70877 14.9149 6.95573 15.01 7.17108 15.1576 C 7.38643 15.3052 7.56417 15.5013 7.69003 15.73 C 7.79466 15.9351 7.9401 16.1167 8.11742 16.2635 C 8.29473 16.4104 8.50019 16.5195 8.72118 16.5841 C 8.94218 16.6487 9.17404 16.6675 9.40255 16.6393 C 9.63106 16.6111 9.85139 16.5364 10.05 16.42 C 10.0879 16.0025 10.2679 15.6107 10.56 15.31 C 8.76003 15.1 6.94003 14.84 6.94003 11.65 C 6.92091 11.2896 6.97881 10.9293 7.10985 10.5931 C 7.2409 10.2569 7.44209 9.95241 7.70003 9.70002 C 7.45667 8.96799 7.48507 8.17282 7.78003 7.46002 C 8.46003 7.24002 10.01 8.35002 10.01 8.35002 C 11.3342 7.97655 12.7359 7.97655 14.06 8.35002 C 14.06 8.35002 15.61 7.24002 16.29 7.46002 C 16.5914 8.17142 16.6198 8.96894 16.37 9.70002 C 16.6371 9.94893 16.8489 10.2511 16.9919 10.587 C 17.1348 10.9229 17.2057 11.285 17.2 11.65 C 17.2 14.85 15.3 15.1 13.5 15.31 C 13.6809 15.5129 13.8186 15.7506 13.9046 16.0085 C 13.9905 16.2664 14.023 16.5391 14 16.81 C 14 17.93 14 19.31 14 19.58 C 13.9994 19.6475 14.015 19.7142 14.0456 19.7744 C 14.0763 19.8346 14.1209 19.8866 14.1759 19.9258 C 14.2308 19.9651 14.2945 19.9905 14.3613 19.9999 C 14.4282 20.0094 14.4964 20.0025 14.56 19.98 C 16.1813 19.3978 17.5786 18.321 18.5547 16.9017 C 19.5309 15.4824 20.0364 13.7922 20 12.07 C 20.0094 11.0051 19.8061 9.94902 19.402 8.96371 C 18.9979 7.9784 18.4011 7.08369 17.6467 6.33205 C 16.8923 5.58041 15.9953 4.98696 15.0085 4.58651 C 14.0217 4.18606 12.9649 3.98667 11.9 4.00002 Z M 7.14003 15.41 C 7.14003 15.41 7.14003 15.52 7.14003 15.58 C 7.15118 15.5912 7.16442 15.6001 7.17901 15.6061 C 7.1936 15.6122 7.20923 15.6153 7.22503 15.6153 C 7.24082 15.6153 7.25646 15.6122 7.27105 15.6061 C 7.28563 15.6001 7.29888 15.5912 7.31003 15.58 C 7.31003 15.58 7.31003 15.47 7.31003 15.4 C 7.31003 15.33 7.18003 15.37 7.14003 15.41 Z M 6.79003 15.14 C 6.79003 15.14 6.79003 15.24 6.86003 15.27 C 6.86846 15.2805 6.87913 15.2889 6.89124 15.2947 C 6.90335 15.3004 6.91661 15.3035 6.93003 15.3035 C 6.94345 15.3035 6.9567 15.3004 6.96881 15.2947 C 6.98093 15.2889 6.99159 15.2805 7.00003 15.27 C 7.00003 15.27 7.00003 15.17 6.93003 15.14 C 6.86003 15.11 6.81003 15.11 6.79003 15.14 Z M 7.79003 16.32 C 7.79003 16.32 7.79003 16.46 7.79003 16.53 C 7.79003 16.6 7.96003 16.61 8.00003 16.53 C 8.04003 16.45 8.00003 16.39 8.00003 16.32 C 8.00003 16.25 7.87003 16.27 7.83003 16.32 L 7.79003 16.32 Z M 7.42003 15.83 C 7.42003 15.83 7.42003 15.95 7.42003 16.03 C 7.42003 16.11 7.56003 16.14 7.61003 16.11 C 7.63535 16.0809 7.6493 16.0436 7.6493 16.005 C 7.6493 15.9664 7.63535 15.9291 7.61003 15.9 C 7.56003 15.82 7.48003 15.79 7.42003 15.83 Z" stroke-linecap="round" />
</g>
</svg>